DataType=double
version=3
OpenSimVersion=4.5-2023-11-26-efcdfd3eb
endheader
time	EMG01_right_gast_med	EMG02_right_glut_max	EMG03_left_gast_med	EMG04_left_glut_max	EMG05_right_glut_med	EMG06_right_bic_fem	EMG07_right_rect_fem	EMG08_right_vast_lat	EMG09_right_vast_med	EMG10_right_tens_fasc_lat	EMG11_left_glut_med	EMG12_left_bic_fem	EMG13_left_rect_fem	EMG14_left_vast_lat	EMG15_left_vast_med	EMG16_left_tens_fasc_lat
0	-0.01310375598351131	0.01088843203889722	0.002396876332668124	0.006124421867710084	0.01088762217064718	-0.0006916942999662974	0.003482909269489541	0.003104198881657309	0.002723506448059693	0.01028999613824886	0.002607030768887842	0.001327806522367955	0.003170328616203651	0.003883246073440595	0.00222866448349221	-0.004158123027009701
0.01	-0.006385437113124805	0.02304447678934415	0.006237119712129261	0.01212509134783388	0.02233611574997758	0.0165154534317061	0.0109739497180348	0.00610131758880442	0.01150653927119225	0.03205475277489597	0.004698806080589459	0.001830480881771476	0.005230247546074222	0.005413445843407345	0.004264998665114403	-0.001606925600289764
0.02	0.0003272106866520646	0.03503222873121927	0.01005175785758478	0.01827360718055672	0.0334927178182523	0.03295242973447692	0.01825909789649816	0.009108237545863469	0.02007551697439941	0.05302252894928166	0.006775112872296768	0.002291787251288434	0.007259861719116662	0.006957773817305589	0.006270677462455005	0.001177603370090106
0.03	0.00702539940373008	0.04676991054438483	0.01379322820688077	0.02454904119942848	0.04427497611113895	0.04850440608544029	0.02528251139012216	0.01209444603337674	0.02837235357067806	0.07307553416732243	0.008823873300107733	0.002707795560043686	0.009237053604801015	0.008501516681604007	0.008229629767439281	0.004187475198171758
0.04	0.01370542313932526	0.05817678014864493	0.01741572571639515	0.030927647669537	0.05460342709531479	0.06306774660489672	0.03199084982591011	0.01502964985274611	0.03634139343687535	0.09210324549924394	0.01083354659862339	0.003075480985516911	0.01114023004669728	0.01002963627767689	0.01012581483521243	0.007412027675456285
0.05	0.02036898637791017	0.06917403319776508	0.02087616442627373	0.0373828794232763	0.06440266923422493	0.07655182395825794	0.03833405012803999	0.01788427178374143	0.04393017150432651	0.1100035764060312	0.01279333772988554	0.003392849435052653	0.01294870803214871	0.01152699878697352	0.01194341665369177	0.01083789329813726
0.06	0.02702340900108273	0.07968569087772306	0.02413500532714838	0.04388546568929794	0.07360238384869179	0.08888056192869469	0.04426605081669479	0.02062992833234708	0.05109011049119695	0.1266839681525944	0.01469339132229514	0.00365905119982178	0.01464307736641737	0.0129786094693638	0.0136670380556131	0.0144489854223575
0.07000000000000001	0.03368169560536788	0.0896394622115623	0.02715693241300549	0.05040355712903059	0.08213828654349853	0.09999366016277633	0.04974545224604409	0.02323987861149775	0.05777713925446527	0.1420623881784308	0.01652496781587696	0.003874479937993575	0.01620553473849847	0.01436985102610991	0.01528189239480865	0.01822650609602737
0.08	0.04036245889172111	0.09896756979192738	0.02991137103271369	0.05690294211680514	0.0899529918615514	0.1098474715112905	0.05473610040297879	0.0256894345558217	0.06395221979540203	0.1560682195582931	0.01828059975548441	0.004040854329820453	0.01762018594179362	0.01568672398268276	0.01677399083711233	0.02214898072496795
0.09	0.0470896895378632	0.1076075274591261	0.03237285178060728	0.06334733663159318	0.09699677296958394	0.1184155173171397	0.05920758213089757	0.02795632300320575	0.06958177520104984	0.1686430261110614	0.0199542268633455	0.004161280058588084	0.01887331455158765	0.01691608724788684	0.01813032334075056	0.02619232554258427
0.1	0.05389236796695142	0.1155028582141858	0.03452122923605647	0.06969874831357382	0.1032281987945131	0.1256886380238106	0.06313562041226074	0.03002099103280106	0.07463801630702306	0.179741178290214	0.02154130904403273	0.004240290183701474	0.019953616184844	0.01804589659284249	0.01933903139219232	0.03032995411307486
0.11	0.0608039168810867	0.1226037404910332	0.03634176816470503	0.07591791328027438	0.1086146347004903	0.131674784753947	0.06650236089629127	0.03186684815505719	0.07909916946914404	0.1893303254156496	0.02303891686033931	0.004283862393331546	0.02085239765576351	0.01906543849959372	0.02038957069531058	0.0345329288132858
